<?xml version="1.0" encoding="utf-8"?>
<!-- Generator: Adobe Illustrator 23.0.1, SVG Export Plug-In . SVG Version: 6.00 Build 0)  -->
<svg version="1.1" id="Layer_1" xmlns="http://www.w3.org/2000/svg" xmlns:xlink="http://www.w3.org/1999/xlink" x="0px" y="0px"
	 viewBox="0 0 353.87 351.57" style="enable-background:new 0 0 353.87 351.57;" xml:space="preserve">
<style type="text/css">
	.st0{fill:none;stroke:#c770f0;stroke-width:20;stroke-linecap:round;stroke-miterlimit:10;}
	.st1{fill:#c770f0;}
	.st2{fill:none;stroke:#c770f0;stroke-width:18;stroke-linecap:round;stroke-miterlimit:10;}
	.st3{fill:none;stroke:#c770f0;stroke-width:22;stroke-linecap:round;stroke-miterlimit:10;}
	.st4{fill:none;stroke:#c770f0;stroke-width:27;stroke-linecap:square;stroke-miterlimit:10;}
</style>
<path class="st0" d="M305.23,140.94c0-67.4-68.3-111.94-131.74-111.83C113.6,29.21,48,78.64,48,142.85"/>
<path class="st1" d="M56.01,168.4l37.57-43.49c1-1.16,0.18-2.95-1.35-2.95l-81.05,0c-1.53,0-2.35,1.8-1.35,2.95L47.4,168.4
	C49.67,171.03,53.74,171.03,56.01,168.4z"/>
<path class="st0" d="M51.7,210.38c0,67.4,68.3,111.94,131.74,111.83c59.89-0.1,125.49-49.53,125.49-113.74"/>
<path class="st1" d="M300.93,182.92l-37.57,43.49c-1,1.16-0.18,2.95,1.35,2.95l81.05,0c1.53,0,2.35-1.8,1.35-2.95l-37.57-43.49
	C307.27,180.29,303.2,180.29,300.93,182.92z"/>
<ellipse transform="matrix(0.9239 -0.3827 0.3827 0.9239 -33.5175 77.446)" class="st2" cx="177.91" cy="122.97" rx="35.66" ry="35.66"/>
<path class="st3" d="M115.28,299.23v-77.1c0-5.59,2.55-10.88,6.96-14.32c9.45-7.37,28.43-18.62,56.24-18.62
	c29.86,0,49.73,14.17,58.48,22.05c3.24,2.92,5.09,7.06,5.09,11.42v80.66"/>
<line class="st4" x1="178.66" y1="265.34" x2="177.96" y2="192.49"/>
</svg>
